<?xml version="1.0" encoding="us-ascii" standalone="no"?><svg xmlns="http://www.w3.org/2000/svg" xmlns:xlink="http://www.w3.org/1999/xlink" contentStyleType="text/css" height="543px" preserveAspectRatio="none" style="width:601px;height:543px;background:#FEFEFE;" version="1.1" viewBox="0 0 601 543" width="601px" zoomAndPan="magnify"><defs/><g><rect fill="#FEFEFE" height="543" style="stroke:none;stroke-width:1.0;" width="601" x="0" y="0"/><rect fill="#FFFFFF" height="184.5301" style="stroke:#181818;stroke-width:1.0;" width="10" x="196.5" y="145.186"/><rect fill="#FFFFFF" height="121.118" style="stroke:#181818;stroke-width:1.0;" width="10" x="312.5" y="176.892"/><rect fill="#FFFFFF" height="87.412" style="stroke:#181818;stroke-width:1.0;" width="10" x="312.5" y="386.404"/><rect fill="none" height="387.0421" style="stroke:#000000;stroke-width:1.5;" width="574.5" x="10" y="101.7739"/><line style="stroke:#181818;stroke-width:0.5;stroke-dasharray:5.0,5.0;" x1="46" x2="46" y1="39.0679" y2="505.816"/><line style="stroke:#181818;stroke-width:0.5;stroke-dasharray:5.0,5.0;" x1="201.5" x2="201.5" y1="39.0679" y2="505.816"/><line style="stroke:#181818;stroke-width:0.5;stroke-dasharray:5.0,5.0;" x1="317.5" x2="317.5" y1="39.0679" y2="505.816"/><rect fill="#E2E2F0" height="33.0679" rx="2.5" ry="2.5" style="stroke:#181818;stroke-width:0.5;" width="53" x="20" y="5"/><text fill="#000000" font-family="sans-serif" font-size="14" lengthAdjust="spacing" textLength="39" x="27" y="26.9659">Client</text><rect fill="#E2E2F0" height="33.0679" rx="2.5" ry="2.5" style="stroke:#181818;stroke-width:0.5;" width="53" x="20" y="504.816"/><text fill="#000000" font-family="sans-serif" font-size="14" lengthAdjust="spacing" textLength="39" x="27" y="526.7819">Client</text><rect fill="#E2E2F0" height="33.0679" rx="2.5" ry="2.5" style="stroke:#181818;stroke-width:0.5;" width="36" x="183.5" y="5"/><text fill="#000000" font-family="sans-serif" font-size="14" lengthAdjust="spacing" textLength="22" x="190.5" y="26.9659">API</text><rect fill="#E2E2F0" height="33.0679" rx="2.5" ry="2.5" style="stroke:#181818;stroke-width:0.5;" width="36" x="183.5" y="504.816"/><text fill="#000000" font-family="sans-serif" font-size="14" lengthAdjust="spacing" textLength="22" x="190.5" y="526.7819">API</text><rect fill="#E2E2F0" height="33.0679" rx="2.5" ry="2.5" style="stroke:#181818;stroke-width:0.5;" width="44" x="295.5" y="5"/><text fill="#000000" font-family="sans-serif" font-size="14" lengthAdjust="spacing" textLength="30" x="302.5" y="26.9659">Aino</text><rect fill="#E2E2F0" height="33.0679" rx="2.5" ry="2.5" style="stroke:#181818;stroke-width:0.5;" width="44" x="295.5" y="504.816"/><text fill="#000000" font-family="sans-serif" font-size="14" lengthAdjust="spacing" textLength="30" x="302.5" y="526.7819">Aino</text><rect fill="#FFFFFF" height="184.5301" style="stroke:#181818;stroke-width:1.0;" width="10" x="196.5" y="145.186"/><rect fill="#FFFFFF" height="121.118" style="stroke:#181818;stroke-width:1.0;" width="10" x="312.5" y="176.892"/><rect fill="#FFFFFF" height="87.412" style="stroke:#181818;stroke-width:1.0;" width="10" x="312.5" y="386.404"/><rect fill="#EEEEEE" height="3" style="stroke:#EEEEEE;stroke-width:1.0;" width="594.5" x="0" y="70.9209"/><line style="stroke:#000000;stroke-width:1.0;" x1="0" x2="594.5" y1="70.9209" y2="70.9209"/><line style="stroke:#000000;stroke-width:1.0;" x1="0" x2="594.5" y1="73.9209" y2="73.9209"/><rect fill="#EEEEEE" height="25.706" style="stroke:#000000;stroke-width:2.0;" width="131" x="231.75" y="59.0679"/><text fill="#000000" font-family="sans-serif" font-size="13" font-weight="bold" lengthAdjust="spacing" textLength="114" x="237.75" y="76.9649">Result expiration</text><path d="M10,101.7739 L73,101.7739 L73,111.4799 L63,121.4799 L10,121.4799 L10,101.7739 " fill="#EEEEEE" style="stroke:#000000;stroke-width:1.5;"/><rect fill="none" height="387.0421" style="stroke:#000000;stroke-width:1.5;" width="574.5" x="10" y="101.7739"/><text fill="#000000" font-family="sans-serif" font-size="13" font-weight="bold" lengthAdjust="spacing" textLength="18" x="25" y="116.6709">alt</text><text fill="#000000" font-family="sans-serif" font-size="11" font-weight="bold" lengthAdjust="spacing" textLength="145" x="88" y="115.5328">[manual result expiration]</text><polygon fill="#181818" points="184.5,141.186,194.5,145.186,184.5,149.186,188.5,145.186" style="stroke:#181818;stroke-width:1.0;"/><line style="stroke:#181818;stroke-width:1.0;" x1="46.5" x2="190.5" y1="145.186" y2="145.186"/><text fill="#000000" font-family="sans-serif" font-size="13" lengthAdjust="spacing" textLength="131" x="53.5" y="139.377">DELETE /ai/task/result</text><polygon fill="#181818" points="300.5,172.892,310.5,176.892,300.5,180.892,304.5,176.892" style="stroke:#181818;stroke-width:1.0;"/><line style="stroke:#181818;stroke-width:1.0;" x1="206.5" x2="306.5" y1="176.892" y2="176.892"/><text fill="#000000" font-family="sans-serif" font-size="13" lengthAdjust="spacing" textLength="74" x="213.5" y="171.083">delete result</text><line style="stroke:#181818;stroke-width:1.0;" x1="322.5" x2="364.5" y1="208.598" y2="208.598"/><line style="stroke:#181818;stroke-width:1.0;" x1="364.5" x2="364.5" y1="208.598" y2="221.598"/><line style="stroke:#181818;stroke-width:1.0;" x1="323.5" x2="364.5" y1="221.598" y2="221.598"/><polygon fill="#181818" points="333.5,217.598,323.5,221.598,333.5,225.598,329.5,221.598" style="stroke:#181818;stroke-width:1.0;"/><text fill="#000000" font-family="sans-serif" font-size="13" lengthAdjust="spacing" textLength="183" x="329.5" y="202.789">delete result from tmp storage</text><line style="stroke:#181818;stroke-width:1.0;" x1="322.5" x2="364.5" y1="253.304" y2="253.304"/><line style="stroke:#181818;stroke-width:1.0;" x1="364.5" x2="364.5" y1="253.304" y2="266.304"/><line style="stroke:#181818;stroke-width:1.0;" x1="323.5" x2="364.5" y1="266.304" y2="266.304"/><polygon fill="#181818" points="333.5,262.304,323.5,266.304,333.5,270.304,329.5,266.304" style="stroke:#181818;stroke-width:1.0;"/><text fill="#000000" font-family="sans-serif" font-size="13" lengthAdjust="spacing" textLength="243" x="329.5" y="247.495">delete expired results (older than 1 hour)</text><polygon fill="#181818" points="217.5,294.01,207.5,298.01,217.5,302.01,213.5,298.01" style="stroke:#181818;stroke-width:1.0;"/><line style="stroke:#181818;stroke-width:1.0;" x1="211.5" x2="316.5" y1="298.01" y2="298.01"/><text fill="#000000" font-family="sans-serif" font-size="13" lengthAdjust="spacing" textLength="82" x="223.5" y="292.201">result deleted</text><polygon fill="#181818" points="57.5,325.716,47.5,329.716,57.5,333.716,53.5,329.716" style="stroke:#181818;stroke-width:1.0;"/><line style="stroke:#181818;stroke-width:1.0;" x1="51.5" x2="200.5" y1="329.716" y2="329.716"/><text fill="#000000" font-family="sans-serif" font-size="13" lengthAdjust="spacing" textLength="42" x="63.5" y="323.907">200 OK</text><line style="stroke:#000000;stroke-width:1.0;stroke-dasharray:2.0,2.0;" x1="10" x2="584.5" y1="338.716" y2="338.716"/><text fill="#000000" font-family="sans-serif" font-size="11" font-weight="bold" lengthAdjust="spacing" textLength="161" x="15" y="350.475">[automatic result expiration]</text><line style="stroke:#181818;stroke-width:1.0;" x1="317.5" x2="364.5" y1="373.404" y2="373.404"/><line style="stroke:#181818;stroke-width:1.0;" x1="364.5" x2="364.5" y1="373.404" y2="386.404"/><line style="stroke:#181818;stroke-width:1.0;" x1="323.5" x2="364.5" y1="386.404" y2="386.404"/><polygon fill="#181818" points="333.5,382.404,323.5,386.404,333.5,390.404,329.5,386.404" style="stroke:#181818;stroke-width:1.0;"/><text fill="#000000" font-family="sans-serif" font-size="13" lengthAdjust="spacing" textLength="135" x="329.5" y="367.595">run scheduled cleanup</text><line style="stroke:#181818;stroke-width:1.0;" x1="322.5" x2="364.5" y1="423.11" y2="423.11"/><line style="stroke:#181818;stroke-width:1.0;" x1="364.5" x2="364.5" y1="423.11" y2="436.11"/><line style="stroke:#181818;stroke-width:1.0;" x1="323.5" x2="364.5" y1="436.11" y2="436.11"/><polygon fill="#181818" points="333.5,432.11,323.5,436.11,333.5,440.11,329.5,436.11" style="stroke:#181818;stroke-width:1.0;"/><text fill="#000000" font-family="sans-serif" font-size="13" lengthAdjust="spacing" textLength="243" x="329.5" y="417.301">delete expired results (older than 1 hour)</text><line style="stroke:#181818;stroke-width:1.0;" x1="322.5" x2="364.5" y1="472.816" y2="472.816"/><line style="stroke:#181818;stroke-width:1.0;" x1="364.5" x2="364.5" y1="472.816" y2="485.816"/><line style="stroke:#181818;stroke-width:1.0;" x1="317.5" x2="364.5" y1="485.816" y2="485.816"/><polygon fill="#181818" points="327.5,481.816,317.5,485.816,327.5,489.816,323.5,485.816" style="stroke:#181818;stroke-width:1.0;"/><text fill="#000000" font-family="sans-serif" font-size="13" lengthAdjust="spacing" textLength="178" x="329.5" y="467.007">update task_status to expired</text><!--SRC=[fL1DImCn5BpdLmnuKKffzLXOGUeAeg28TtbkNjkmsIGaB-3FD-csh2szIGw1-SfCKczSe4W3lgdhjz5dfzVU-eYhfxOUfGejfZE1d61j3PUB4ZfxGZoyFrUKWZc5ZVDxt2ZLDFZWbAs0VuA99COxD8rILA21N2QBU2vGA2zXVb-JCPkjyDY-jfyj5cGMGgbVZ8uYguAg6sMQBGjZOW_a6ODDz0Da24ZY8stvadJVXlN1ad3jhUO8sP73BNO-nvl9LblCLyVuCK5FzUgOGjyjbtXxKMmJWxBueOpjBgwdlwjYTaZTZdMsfKzdkVnQ-7VbiN4EcegpVkfN4fAS8FuOfDXfzGi0]--></g></svg>