<?xml version="1.0" encoding="us-ascii" standalone="no"?><svg xmlns="http://www.w3.org/2000/svg" xmlns:xlink="http://www.w3.org/1999/xlink" contentStyleType="text/css" height="1456px" preserveAspectRatio="none" style="width:681px;height:1456px;background:#FEFEFE;" version="1.1" viewBox="0 0 681 1456" width="681px" zoomAndPan="magnify"><defs/><g><rect fill="#FEFEFE" height="1456" style="stroke:none;stroke-width:1.0;" width="681" x="0" y="0"/><rect fill="#FFFFFF" height="184.5301" style="stroke:#181818;stroke-width:1.0;" width="10" x="268.5" y="118.4799"/><rect fill="#FFFFFF" height="95.118" style="stroke:#181818;stroke-width:1.0;" width="10" x="268.5" y="380.4221"/><rect fill="#FFFFFF" height="95.118" style="stroke:#181818;stroke-width:1.0;" width="10" x="268.5" y="687.0702"/><rect fill="#FFFFFF" height="139.8241" style="stroke:#181818;stroke-width:1.0;" width="10" x="268.5" y="813.8943"/><rect fill="#FFFFFF" height="184.5301" style="stroke:#181818;stroke-width:1.0;" width="10" x="268.5" y="1057.8364"/><rect fill="#FFFFFF" height="498.1782" style="stroke:#181818;stroke-width:1.0;" width="10" x="391.5" y="150.186"/><rect fill="#FFFFFF" height="31.706" style="stroke:#181818;stroke-width:1.0;" width="10" x="396.5" y="412.1281"/><rect fill="#FFFFFF" height="31.706" style="stroke:#181818;stroke-width:1.0;" width="10" x="391.5" y="718.7762"/><rect fill="#FFFFFF" height="76.412" style="stroke:#181818;stroke-width:1.0;" width="10" x="391.5" y="845.6003"/><rect fill="#FFFFFF" height="121.118" style="stroke:#181818;stroke-width:1.0;" width="10" x="391.5" y="1089.5424"/><rect fill="#FFFFFF" height="87.412" style="stroke:#181818;stroke-width:1.0;" width="10" x="391.5" y="1299.0544"/><rect fill="none" height="387.0421" style="stroke:#000000;stroke-width:1.5;" width="654.5" x="10" y="1014.4243"/><line style="stroke:#181818;stroke-width:0.5;stroke-dasharray:5.0,5.0;" x1="46" x2="46" y1="39.0679" y2="1418.4664"/><line style="stroke:#181818;stroke-width:0.5;stroke-dasharray:5.0,5.0;" x1="273.5" x2="273.5" y1="39.0679" y2="1418.4664"/><line style="stroke:#181818;stroke-width:0.5;stroke-dasharray:5.0,5.0;" x1="396.5" x2="396.5" y1="39.0679" y2="1418.4664"/><rect fill="#E2E2F0" height="33.0679" rx="2.5" ry="2.5" style="stroke:#181818;stroke-width:0.5;" width="53" x="20" y="5"/><text fill="#000000" font-family="sans-serif" font-size="14" lengthAdjust="spacing" textLength="39" x="27" y="26.9659">Client</text><rect fill="#E2E2F0" height="33.0679" rx="2.5" ry="2.5" style="stroke:#181818;stroke-width:0.5;" width="53" x="20" y="1417.4664"/><text fill="#000000" font-family="sans-serif" font-size="14" lengthAdjust="spacing" textLength="39" x="27" y="1439.4323">Client</text><rect fill="#E2E2F0" height="33.0679" rx="2.5" ry="2.5" style="stroke:#181818;stroke-width:0.5;" width="36" x="255.5" y="5"/><text fill="#000000" font-family="sans-serif" font-size="14" lengthAdjust="spacing" textLength="22" x="262.5" y="26.9659">API</text><rect fill="#E2E2F0" height="33.0679" rx="2.5" ry="2.5" style="stroke:#181818;stroke-width:0.5;" width="36" x="255.5" y="1417.4664"/><text fill="#000000" font-family="sans-serif" font-size="14" lengthAdjust="spacing" textLength="22" x="262.5" y="1439.4323">API</text><rect fill="#E2E2F0" height="33.0679" rx="2.5" ry="2.5" style="stroke:#181818;stroke-width:0.5;" width="44" x="374.5" y="5"/><text fill="#000000" font-family="sans-serif" font-size="14" lengthAdjust="spacing" textLength="30" x="381.5" y="26.9659">Aino</text><rect fill="#E2E2F0" height="33.0679" rx="2.5" ry="2.5" style="stroke:#181818;stroke-width:0.5;" width="44" x="374.5" y="1417.4664"/><text fill="#000000" font-family="sans-serif" font-size="14" lengthAdjust="spacing" textLength="30" x="381.5" y="1439.4323">Aino</text><rect fill="#FFFFFF" height="184.5301" style="stroke:#181818;stroke-width:1.0;" width="10" x="268.5" y="118.4799"/><rect fill="#FFFFFF" height="95.118" style="stroke:#181818;stroke-width:1.0;" width="10" x="268.5" y="380.4221"/><rect fill="#FFFFFF" height="95.118" style="stroke:#181818;stroke-width:1.0;" width="10" x="268.5" y="687.0702"/><rect fill="#FFFFFF" height="139.8241" style="stroke:#181818;stroke-width:1.0;" width="10" x="268.5" y="813.8943"/><rect fill="#FFFFFF" height="184.5301" style="stroke:#181818;stroke-width:1.0;" width="10" x="268.5" y="1057.8364"/><rect fill="#FFFFFF" height="498.1782" style="stroke:#181818;stroke-width:1.0;" width="10" x="391.5" y="150.186"/><rect fill="#FFFFFF" height="31.706" style="stroke:#181818;stroke-width:1.0;" width="10" x="396.5" y="412.1281"/><rect fill="#FFFFFF" height="31.706" style="stroke:#181818;stroke-width:1.0;" width="10" x="391.5" y="718.7762"/><rect fill="#FFFFFF" height="76.412" style="stroke:#181818;stroke-width:1.0;" width="10" x="391.5" y="845.6003"/><rect fill="#FFFFFF" height="121.118" style="stroke:#181818;stroke-width:1.0;" width="10" x="391.5" y="1089.5424"/><rect fill="#FFFFFF" height="87.412" style="stroke:#181818;stroke-width:1.0;" width="10" x="391.5" y="1299.0544"/><rect fill="#EEEEEE" height="3" style="stroke:#EEEEEE;stroke-width:1.0;" width="674.5" x="0" y="70.9209"/><line style="stroke:#000000;stroke-width:1.0;" x1="0" x2="674.5" y1="70.9209" y2="70.9209"/><line style="stroke:#000000;stroke-width:1.0;" x1="0" x2="674.5" y1="73.9209" y2="73.9209"/><rect fill="#EEEEEE" height="25.706" style="stroke:#000000;stroke-width:2.0;" width="117" x="278.75" y="59.0679"/><text fill="#000000" font-family="sans-serif" font-size="13" font-weight="bold" lengthAdjust="spacing" textLength="100" x="284.75" y="76.9649">Initiate AI Task</text><polygon fill="#181818" points="256.5,114.4799,266.5,118.4799,256.5,122.4799,260.5,118.4799" style="stroke:#181818;stroke-width:1.0;"/><line style="stroke:#181818;stroke-width:1.0;" x1="46.5" x2="262.5" y1="118.4799" y2="118.4799"/><text fill="#000000" font-family="sans-serif" font-size="13" lengthAdjust="spacing" textLength="80" x="53.5" y="112.6709">POST /ai/task</text><polygon fill="#181818" points="379.5,146.186,389.5,150.186,379.5,154.186,383.5,150.186" style="stroke:#181818;stroke-width:1.0;"/><line style="stroke:#181818;stroke-width:1.0;" x1="278.5" x2="385.5" y1="150.186" y2="150.186"/><text fill="#000000" font-family="sans-serif" font-size="13" lengthAdjust="spacing" textLength="82" x="285.5" y="144.377">Create AI task</text><line style="stroke:#181818;stroke-width:1.0;" x1="401.5" x2="443.5" y1="181.892" y2="181.892"/><line style="stroke:#181818;stroke-width:1.0;" x1="443.5" x2="443.5" y1="181.892" y2="194.892"/><line style="stroke:#181818;stroke-width:1.0;" x1="402.5" x2="443.5" y1="194.892" y2="194.892"/><polygon fill="#181818" points="412.5,190.892,402.5,194.892,412.5,198.892,408.5,194.892" style="stroke:#181818;stroke-width:1.0;"/><text fill="#000000" font-family="sans-serif" font-size="13" lengthAdjust="spacing" textLength="111" x="408.5" y="176.083">Initial task analysis</text><line style="stroke:#181818;stroke-width:1.0;" x1="401.5" x2="443.5" y1="226.598" y2="226.598"/><line style="stroke:#181818;stroke-width:1.0;" x1="443.5" x2="443.5" y1="226.598" y2="239.598"/><line style="stroke:#181818;stroke-width:1.0;" x1="402.5" x2="443.5" y1="239.598" y2="239.598"/><polygon fill="#181818" points="412.5,235.598,402.5,239.598,412.5,243.598,408.5,239.598" style="stroke:#181818;stroke-width:1.0;"/><text fill="#000000" font-family="sans-serif" font-size="13" lengthAdjust="spacing" textLength="67" x="408.5" y="220.789">Create task</text><polygon fill="#181818" points="289.5,267.304,279.5,271.304,289.5,275.304,285.5,271.304" style="stroke:#181818;stroke-width:1.0;"/><line style="stroke:#181818;stroke-width:1.0;" x1="283.5" x2="390.5" y1="271.304" y2="271.304"/><text fill="#000000" font-family="sans-serif" font-size="13" lengthAdjust="spacing" textLength="67" x="295.5" y="265.495">Task status</text><polygon fill="#181818" points="57.5,299.01,47.5,303.01,57.5,307.01,53.5,303.01" style="stroke:#181818;stroke-width:1.0;"/><line style="stroke:#181818;stroke-width:1.0;" x1="51.5" x2="272.5" y1="303.01" y2="303.01"/><text fill="#000000" font-family="sans-serif" font-size="13" lengthAdjust="spacing" textLength="198" x="63.5" y="297.201">200 OK + Task status (processing)</text><rect fill="#EEEEEE" height="3" style="stroke:#EEEEEE;stroke-width:1.0;" width="674.5" x="0" y="332.863"/><line style="stroke:#000000;stroke-width:1.0;" x1="0" x2="674.5" y1="332.863" y2="332.863"/><line style="stroke:#000000;stroke-width:1.0;" x1="0" x2="674.5" y1="335.863" y2="335.863"/><rect fill="#EEEEEE" height="25.706" style="stroke:#000000;stroke-width:2.0;" width="102" x="286.25" y="321.01"/><text fill="#000000" font-family="sans-serif" font-size="13" font-weight="bold" lengthAdjust="spacing" textLength="85" x="292.25" y="338.907">Check Status</text><polygon fill="#181818" points="256.5,376.4221,266.5,380.4221,256.5,384.4221,260.5,380.4221" style="stroke:#181818;stroke-width:1.0;"/><line style="stroke:#181818;stroke-width:1.0;" x1="46.5" x2="262.5" y1="380.4221" y2="380.4221"/><text fill="#000000" font-family="sans-serif" font-size="13" lengthAdjust="spacing" textLength="71" x="53.5" y="374.6131">GET /ai/task</text><polygon fill="#181818" points="384.5,408.1281,394.5,412.1281,384.5,416.1281,388.5,412.1281" style="stroke:#181818;stroke-width:1.0;"/><line style="stroke:#181818;stroke-width:1.0;" x1="278.5" x2="390.5" y1="412.1281" y2="412.1281"/><text fill="#000000" font-family="sans-serif" font-size="13" lengthAdjust="spacing" textLength="89" x="285.5" y="406.3191">Get task status</text><polygon fill="#181818" points="289.5,439.8341,279.5,443.8341,289.5,447.8341,285.5,443.8341" style="stroke:#181818;stroke-width:1.0;"/><line style="stroke:#181818;stroke-width:1.0;" x1="283.5" x2="390.5" y1="443.8341" y2="443.8341"/><text fill="#000000" font-family="sans-serif" font-size="13" lengthAdjust="spacing" textLength="67" x="295.5" y="438.0251">Task status</text><polygon fill="#181818" points="57.5,471.5401,47.5,475.5401,57.5,479.5401,53.5,475.5401" style="stroke:#181818;stroke-width:1.0;"/><line style="stroke:#181818;stroke-width:1.0;" x1="51.5" x2="272.5" y1="475.5401" y2="475.5401"/><text fill="#000000" font-family="sans-serif" font-size="13" lengthAdjust="spacing" textLength="198" x="63.5" y="469.7311">200 OK + Task status (processing)</text><rect fill="#EEEEEE" height="3" style="stroke:#EEEEEE;stroke-width:1.0;" width="674.5" x="0" y="505.3931"/><line style="stroke:#000000;stroke-width:1.0;" x1="0" x2="674.5" y1="505.3931" y2="505.3931"/><line style="stroke:#000000;stroke-width:1.0;" x1="0" x2="674.5" y1="508.3931" y2="508.3931"/><rect fill="#EEEEEE" height="25.706" style="stroke:#000000;stroke-width:2.0;" width="99" x="287.75" y="493.5401"/><text fill="#000000" font-family="sans-serif" font-size="13" font-weight="bold" lengthAdjust="spacing" textLength="82" x="293.75" y="511.4371">Fetch Result</text><line style="stroke:#181818;stroke-width:1.0;" x1="401.5" x2="443.5" y1="552.9521" y2="552.9521"/><line style="stroke:#181818;stroke-width:1.0;" x1="443.5" x2="443.5" y1="552.9521" y2="565.9521"/><line style="stroke:#181818;stroke-width:1.0;" x1="402.5" x2="443.5" y1="565.9521" y2="565.9521"/><polygon fill="#181818" points="412.5,561.9521,402.5,565.9521,412.5,569.9521,408.5,565.9521" style="stroke:#181818;stroke-width:1.0;"/><text fill="#000000" font-family="sans-serif" font-size="13" lengthAdjust="spacing" textLength="86" x="408.5" y="547.1431">Complete task</text><line style="stroke:#181818;stroke-width:1.0;" x1="401.5" x2="443.5" y1="597.6582" y2="597.6582"/><line style="stroke:#181818;stroke-width:1.0;" x1="443.5" x2="443.5" y1="597.6582" y2="610.6582"/><line style="stroke:#181818;stroke-width:1.0;" x1="402.5" x2="443.5" y1="610.6582" y2="610.6582"/><polygon fill="#181818" points="412.5,606.6582,402.5,610.6582,412.5,614.6582,408.5,610.6582" style="stroke:#181818;stroke-width:1.0;"/><text fill="#000000" font-family="sans-serif" font-size="13" lengthAdjust="spacing" textLength="199" x="408.5" y="591.8492">Store result in temporary storage</text><line style="stroke:#181818;stroke-width:1.0;" x1="401.5" x2="443.5" y1="647.3642" y2="647.3642"/><line style="stroke:#181818;stroke-width:1.0;" x1="443.5" x2="443.5" y1="647.3642" y2="660.3642"/><line style="stroke:#181818;stroke-width:1.0;" x1="396.5" x2="443.5" y1="660.3642" y2="660.3642"/><polygon fill="#181818" points="406.5,656.3642,396.5,660.3642,406.5,664.3642,402.5,660.3642" style="stroke:#181818;stroke-width:1.0;"/><text fill="#000000" font-family="sans-serif" font-size="13" lengthAdjust="spacing" textLength="63" x="408.5" y="641.5552">Finish task</text><polygon fill="#181818" points="256.5,683.0702,266.5,687.0702,256.5,691.0702,260.5,687.0702" style="stroke:#181818;stroke-width:1.0;"/><line style="stroke:#181818;stroke-width:1.0;" x1="46.5" x2="262.5" y1="687.0702" y2="687.0702"/><text fill="#000000" font-family="sans-serif" font-size="13" lengthAdjust="spacing" textLength="71" x="53.5" y="681.2612">GET /ai/task</text><polygon fill="#181818" points="379.5,714.7762,389.5,718.7762,379.5,722.7762,383.5,718.7762" style="stroke:#181818;stroke-width:1.0;"/><line style="stroke:#181818;stroke-width:1.0;" x1="278.5" x2="385.5" y1="718.7762" y2="718.7762"/><text fill="#000000" font-family="sans-serif" font-size="13" lengthAdjust="spacing" textLength="89" x="285.5" y="712.9672">Get task status</text><polygon fill="#181818" points="289.5,746.4822,279.5,750.4822,289.5,754.4822,285.5,750.4822" style="stroke:#181818;stroke-width:1.0;"/><line style="stroke:#181818;stroke-width:1.0;" x1="283.5" x2="395.5" y1="750.4822" y2="750.4822"/><text fill="#000000" font-family="sans-serif" font-size="13" lengthAdjust="spacing" textLength="67" x="295.5" y="744.6732">Task status</text><polygon fill="#181818" points="57.5,778.1882,47.5,782.1882,57.5,786.1882,53.5,782.1882" style="stroke:#181818;stroke-width:1.0;"/><line style="stroke:#181818;stroke-width:1.0;" x1="51.5" x2="272.5" y1="782.1882" y2="782.1882"/><text fill="#000000" font-family="sans-serif" font-size="13" lengthAdjust="spacing" textLength="180" x="63.5" y="776.3792">200 OK + Task status (finished)</text><polygon fill="#181818" points="256.5,809.8943,266.5,813.8943,256.5,817.8943,260.5,813.8943" style="stroke:#181818;stroke-width:1.0;"/><line style="stroke:#181818;stroke-width:1.0;" x1="46.5" x2="262.5" y1="813.8943" y2="813.8943"/><text fill="#000000" font-family="sans-serif" font-size="13" lengthAdjust="spacing" textLength="110" x="53.5" y="808.0853">GET /ai/task/result</text><polygon fill="#181818" points="379.5,841.6003,389.5,845.6003,379.5,849.6003,383.5,845.6003" style="stroke:#181818;stroke-width:1.0;"/><line style="stroke:#181818;stroke-width:1.0;" x1="278.5" x2="385.5" y1="845.6003" y2="845.6003"/><text fill="#000000" font-family="sans-serif" font-size="13" lengthAdjust="spacing" textLength="58" x="285.5" y="839.7913">Get result</text><line style="stroke:#181818;stroke-width:1.0;" x1="401.5" x2="443.5" y1="877.3063" y2="877.3063"/><line style="stroke:#181818;stroke-width:1.0;" x1="443.5" x2="443.5" y1="877.3063" y2="890.3063"/><line style="stroke:#181818;stroke-width:1.0;" x1="402.5" x2="443.5" y1="890.3063" y2="890.3063"/><polygon fill="#181818" points="412.5,886.3063,402.5,890.3063,412.5,894.3063,408.5,890.3063" style="stroke:#181818;stroke-width:1.0;"/><text fill="#000000" font-family="sans-serif" font-size="13" lengthAdjust="spacing" textLength="218" x="408.5" y="871.4973">Fetch result from temporary storage</text><polygon fill="#181818" points="289.5,918.0123,279.5,922.0123,289.5,926.0123,285.5,922.0123" style="stroke:#181818;stroke-width:1.0;"/><line style="stroke:#181818;stroke-width:1.0;" x1="283.5" x2="395.5" y1="922.0123" y2="922.0123"/><text fill="#000000" font-family="sans-serif" font-size="13" lengthAdjust="spacing" textLength="37" x="295.5" y="916.2033">Result</text><polygon fill="#181818" points="57.5,949.7183,47.5,953.7183,57.5,957.7183,53.5,953.7183" style="stroke:#181818;stroke-width:1.0;"/><line style="stroke:#181818;stroke-width:1.0;" x1="51.5" x2="272.5" y1="953.7183" y2="953.7183"/><text fill="#000000" font-family="sans-serif" font-size="13" lengthAdjust="spacing" textLength="92" x="63.5" y="947.9093">200 OK + Result</text><rect fill="#EEEEEE" height="3" style="stroke:#EEEEEE;stroke-width:1.0;" width="674.5" x="0" y="983.5713"/><line style="stroke:#000000;stroke-width:1.0;" x1="0" x2="674.5" y1="983.5713" y2="983.5713"/><line style="stroke:#000000;stroke-width:1.0;" x1="0" x2="674.5" y1="986.5713" y2="986.5713"/><rect fill="#EEEEEE" height="25.706" style="stroke:#000000;stroke-width:2.0;" width="130" x="272.25" y="971.7183"/><text fill="#000000" font-family="sans-serif" font-size="13" font-weight="bold" lengthAdjust="spacing" textLength="113" x="278.25" y="989.6153">Result Expiration</text><path d="M10,1014.4243 L73,1014.4243 L73,1024.1304 L63,1034.1304 L10,1034.1304 L10,1014.4243 " fill="#EEEEEE" style="stroke:#000000;stroke-width:1.5;"/><rect fill="none" height="387.0421" style="stroke:#000000;stroke-width:1.5;" width="654.5" x="10" y="1014.4243"/><text fill="#000000" font-family="sans-serif" font-size="13" font-weight="bold" lengthAdjust="spacing" textLength="18" x="25" y="1029.3214">alt</text><text fill="#000000" font-family="sans-serif" font-size="11" font-weight="bold" lengthAdjust="spacing" textLength="144" x="88" y="1028.1833">[Manual result expiration]</text><polygon fill="#181818" points="256.5,1053.8364,266.5,1057.8364,256.5,1061.8364,260.5,1057.8364" style="stroke:#181818;stroke-width:1.0;"/><line style="stroke:#181818;stroke-width:1.0;" x1="46.5" x2="262.5" y1="1057.8364" y2="1057.8364"/><text fill="#000000" font-family="sans-serif" font-size="13" lengthAdjust="spacing" textLength="131" x="53.5" y="1052.0274">DELETE /ai/task/result</text><polygon fill="#181818" points="379.5,1085.5424,389.5,1089.5424,379.5,1093.5424,383.5,1089.5424" style="stroke:#181818;stroke-width:1.0;"/><line style="stroke:#181818;stroke-width:1.0;" x1="278.5" x2="385.5" y1="1089.5424" y2="1089.5424"/><text fill="#000000" font-family="sans-serif" font-size="13" lengthAdjust="spacing" textLength="75" x="285.5" y="1083.7334">Delete result</text><line style="stroke:#181818;stroke-width:1.0;" x1="401.5" x2="443.5" y1="1121.2484" y2="1121.2484"/><line style="stroke:#181818;stroke-width:1.0;" x1="443.5" x2="443.5" y1="1121.2484" y2="1134.2484"/><line style="stroke:#181818;stroke-width:1.0;" x1="402.5" x2="443.5" y1="1134.2484" y2="1134.2484"/><polygon fill="#181818" points="412.5,1130.2484,402.5,1134.2484,412.5,1138.2484,408.5,1134.2484" style="stroke:#181818;stroke-width:1.0;"/><text fill="#000000" font-family="sans-serif" font-size="13" lengthAdjust="spacing" textLength="223" x="408.5" y="1115.4394">Delete result from temporary storage</text><line style="stroke:#181818;stroke-width:1.0;" x1="401.5" x2="443.5" y1="1165.9544" y2="1165.9544"/><line style="stroke:#181818;stroke-width:1.0;" x1="443.5" x2="443.5" y1="1165.9544" y2="1178.9544"/><line style="stroke:#181818;stroke-width:1.0;" x1="402.5" x2="443.5" y1="1178.9544" y2="1178.9544"/><polygon fill="#181818" points="412.5,1174.9544,402.5,1178.9544,412.5,1182.9544,408.5,1178.9544" style="stroke:#181818;stroke-width:1.0;"/><text fill="#000000" font-family="sans-serif" font-size="13" lengthAdjust="spacing" textLength="244" x="408.5" y="1160.1454">Delete expired results (older than 1 hour)</text><polygon fill="#181818" points="289.5,1206.6604,279.5,1210.6604,289.5,1214.6604,285.5,1210.6604" style="stroke:#181818;stroke-width:1.0;"/><line style="stroke:#181818;stroke-width:1.0;" x1="283.5" x2="395.5" y1="1210.6604" y2="1210.6604"/><text fill="#000000" font-family="sans-serif" font-size="13" lengthAdjust="spacing" textLength="85" x="295.5" y="1204.8514">Result deleted</text><polygon fill="#181818" points="57.5,1238.3665,47.5,1242.3665,57.5,1246.3665,53.5,1242.3665" style="stroke:#181818;stroke-width:1.0;"/><line style="stroke:#181818;stroke-width:1.0;" x1="51.5" x2="272.5" y1="1242.3665" y2="1242.3665"/><text fill="#000000" font-family="sans-serif" font-size="13" lengthAdjust="spacing" textLength="42" x="63.5" y="1236.5575">200 OK</text><line style="stroke:#000000;stroke-width:1.0;stroke-dasharray:2.0,2.0;" x1="10" x2="664.5" y1="1251.3665" y2="1251.3665"/><text fill="#000000" font-family="sans-serif" font-size="11" font-weight="bold" lengthAdjust="spacing" textLength="162" x="15" y="1263.1254">[Automatic result expiration]</text><line style="stroke:#181818;stroke-width:1.0;" x1="396.5" x2="443.5" y1="1286.0544" y2="1286.0544"/><line style="stroke:#181818;stroke-width:1.0;" x1="443.5" x2="443.5" y1="1286.0544" y2="1299.0544"/><line style="stroke:#181818;stroke-width:1.0;" x1="402.5" x2="443.5" y1="1299.0544" y2="1299.0544"/><polygon fill="#181818" points="412.5,1295.0544,402.5,1299.0544,412.5,1303.0544,408.5,1299.0544" style="stroke:#181818;stroke-width:1.0;"/><text fill="#000000" font-family="sans-serif" font-size="13" lengthAdjust="spacing" textLength="138" x="408.5" y="1280.2454">Run scheduled cleanup</text><line style="stroke:#181818;stroke-width:1.0;" x1="401.5" x2="443.5" y1="1335.7604" y2="1335.7604"/><line style="stroke:#181818;stroke-width:1.0;" x1="443.5" x2="443.5" y1="1335.7604" y2="1348.7604"/><line style="stroke:#181818;stroke-width:1.0;" x1="402.5" x2="443.5" y1="1348.7604" y2="1348.7604"/><polygon fill="#181818" points="412.5,1344.7604,402.5,1348.7604,412.5,1352.7604,408.5,1348.7604" style="stroke:#181818;stroke-width:1.0;"/><text fill="#000000" font-family="sans-serif" font-size="13" lengthAdjust="spacing" textLength="244" x="408.5" y="1329.9514">Delete expired results (older than 1 hour)</text><line style="stroke:#181818;stroke-width:1.0;" x1="401.5" x2="443.5" y1="1385.4664" y2="1385.4664"/><line style="stroke:#181818;stroke-width:1.0;" x1="443.5" x2="443.5" y1="1385.4664" y2="1398.4664"/><line style="stroke:#181818;stroke-width:1.0;" x1="396.5" x2="443.5" y1="1398.4664" y2="1398.4664"/><polygon fill="#181818" points="406.5,1394.4664,396.5,1398.4664,406.5,1402.4664,402.5,1398.4664" style="stroke:#181818;stroke-width:1.0;"/><text fill="#000000" font-family="sans-serif" font-size="13" lengthAdjust="spacing" textLength="177" x="408.5" y="1379.6574">Update task status to expired</text><!--SRC=[nLHDQ-Cm4BthLmpqiY6Kj7iCPA6aJWdTqfAaFs1MdiOYiYGa6Tf_l_foOhV9NdfOV12yfvbvxurjTn3AeCKM_Y0_xAtkLBtKKbkuMbNnOIpGNd1XK7bOIa7XG0TSZeYxbtL4qOWnB9HEk61iiO2r4bwW9xXRmmxT0HOBnYLS_ug5C9tEuULvkuCPYfaFD8je93Etj5HgCrcuUMah4moeK7uuuGPyAHnMcG0d1SwZxrm_AOgvdiFFcnjuVeJfy0hyC5PpSawe_IIvMJR43x3Dx1Sd3zL58m_aizP-UAyf3V-kh1Lvti26N2Tzb3N8GRT6qgSa0hxrsXBON24KU6gDjcW_menmxkbuDybO2ILSavlyBzDlIGFLatyfc6LBPuJqn36275g9uCtgzd88HV5crFkpsCB6VPHDLEz6MFH2gxWKXW5wGjM5rxPCfUC51Z0sTL_zhdRL5ry0OsVtbBPxOe_sHimbVsSAaYQgIs78NSkQBFW65Tn2epixEPMDWe4wTQXF8aSHCP8kVCgTrssmpCzcW4Dlcqw1us7ZdGnwkAIGdVcsvApurTJz_w5_mRpk6p5IDViB]--></g></svg>