<?xml version="1.0" encoding="us-ascii" standalone="no"?><svg xmlns="http://www.w3.org/2000/svg" xmlns:xlink="http://www.w3.org/1999/xlink" contentStyleType="text/css" height="1009px" preserveAspectRatio="none" style="width:591px;height:1009px;background:#FEFEFE;" version="1.1" viewBox="0 0 591 1009" width="591px" zoomAndPan="magnify"><defs/><g><rect fill="#FEFEFE" height="1009" style="stroke:none;stroke-width:1.0;" width="591" x="0" y="0"/><rect fill="#FFFFFF" height="184.5301" style="stroke:#181818;stroke-width:1.0;" width="10" x="254.5" y="118.4799"/><rect fill="#FFFFFF" height="95.118" style="stroke:#181818;stroke-width:1.0;" width="10" x="254.5" y="380.4221"/><rect fill="#FFFFFF" height="95.118" style="stroke:#181818;stroke-width:1.0;" width="10" x="254.5" y="687.0702"/><rect fill="#FFFFFF" height="139.8241" style="stroke:#181818;stroke-width:1.0;" width="10" x="254.5" y="813.8943"/><rect fill="#FFFFFF" height="498.1782" style="stroke:#181818;stroke-width:1.0;" width="10" x="379.5" y="150.186"/><rect fill="#FFFFFF" height="31.706" style="stroke:#181818;stroke-width:1.0;" width="10" x="384.5" y="412.1281"/><rect fill="#FFFFFF" height="31.706" style="stroke:#181818;stroke-width:1.0;" width="10" x="379.5" y="718.7762"/><rect fill="#FFFFFF" height="76.412" style="stroke:#181818;stroke-width:1.0;" width="10" x="379.5" y="845.6003"/><line style="stroke:#181818;stroke-width:0.5;stroke-dasharray:5.0,5.0;" x1="31" x2="31" y1="39.0679" y2="971.7183"/><line style="stroke:#181818;stroke-width:0.5;stroke-dasharray:5.0,5.0;" x1="259.5" x2="259.5" y1="39.0679" y2="971.7183"/><line style="stroke:#181818;stroke-width:0.5;stroke-dasharray:5.0,5.0;" x1="384.5" x2="384.5" y1="39.0679" y2="971.7183"/><rect fill="#E2E2F0" height="33.0679" rx="2.5" ry="2.5" style="stroke:#181818;stroke-width:0.5;" width="53" x="5" y="5"/><text fill="#000000" font-family="sans-serif" font-size="14" lengthAdjust="spacing" textLength="39" x="12" y="26.9659">Client</text><rect fill="#E2E2F0" height="33.0679" rx="2.5" ry="2.5" style="stroke:#181818;stroke-width:0.5;" width="53" x="5" y="970.7183"/><text fill="#000000" font-family="sans-serif" font-size="14" lengthAdjust="spacing" textLength="39" x="12" y="992.6843">Client</text><rect fill="#E2E2F0" height="33.0679" rx="2.5" ry="2.5" style="stroke:#181818;stroke-width:0.5;" width="36" x="241.5" y="5"/><text fill="#000000" font-family="sans-serif" font-size="14" lengthAdjust="spacing" textLength="22" x="248.5" y="26.9659">API</text><rect fill="#E2E2F0" height="33.0679" rx="2.5" ry="2.5" style="stroke:#181818;stroke-width:0.5;" width="36" x="241.5" y="970.7183"/><text fill="#000000" font-family="sans-serif" font-size="14" lengthAdjust="spacing" textLength="22" x="248.5" y="992.6843">API</text><rect fill="#E2E2F0" height="33.0679" rx="2.5" ry="2.5" style="stroke:#181818;stroke-width:0.5;" width="44" x="362.5" y="5"/><text fill="#000000" font-family="sans-serif" font-size="14" lengthAdjust="spacing" textLength="30" x="369.5" y="26.9659">Aino</text><rect fill="#E2E2F0" height="33.0679" rx="2.5" ry="2.5" style="stroke:#181818;stroke-width:0.5;" width="44" x="362.5" y="970.7183"/><text fill="#000000" font-family="sans-serif" font-size="14" lengthAdjust="spacing" textLength="30" x="369.5" y="992.6843">Aino</text><rect fill="#FFFFFF" height="184.5301" style="stroke:#181818;stroke-width:1.0;" width="10" x="254.5" y="118.4799"/><rect fill="#FFFFFF" height="95.118" style="stroke:#181818;stroke-width:1.0;" width="10" x="254.5" y="380.4221"/><rect fill="#FFFFFF" height="95.118" style="stroke:#181818;stroke-width:1.0;" width="10" x="254.5" y="687.0702"/><rect fill="#FFFFFF" height="139.8241" style="stroke:#181818;stroke-width:1.0;" width="10" x="254.5" y="813.8943"/><rect fill="#FFFFFF" height="498.1782" style="stroke:#181818;stroke-width:1.0;" width="10" x="379.5" y="150.186"/><rect fill="#FFFFFF" height="31.706" style="stroke:#181818;stroke-width:1.0;" width="10" x="384.5" y="412.1281"/><rect fill="#FFFFFF" height="31.706" style="stroke:#181818;stroke-width:1.0;" width="10" x="379.5" y="718.7762"/><rect fill="#FFFFFF" height="76.412" style="stroke:#181818;stroke-width:1.0;" width="10" x="379.5" y="845.6003"/><rect fill="#EEEEEE" height="3" style="stroke:#EEEEEE;stroke-width:1.0;" width="584.5" x="0" y="70.9209"/><line style="stroke:#000000;stroke-width:1.0;" x1="0" x2="584.5" y1="70.9209" y2="70.9209"/><line style="stroke:#000000;stroke-width:1.0;" x1="0" x2="584.5" y1="73.9209" y2="73.9209"/><rect fill="#EEEEEE" height="25.706" style="stroke:#000000;stroke-width:2.0;" width="116" x="234.25" y="59.0679"/><text fill="#000000" font-family="sans-serif" font-size="13" font-weight="bold" lengthAdjust="spacing" textLength="99" x="240.25" y="76.9649">Initiate AI-task</text><polygon fill="#181818" points="242.5,114.4799,252.5,118.4799,242.5,122.4799,246.5,118.4799" style="stroke:#181818;stroke-width:1.0;"/><line style="stroke:#181818;stroke-width:1.0;" x1="31.5" x2="248.5" y1="118.4799" y2="118.4799"/><text fill="#000000" font-family="sans-serif" font-size="13" lengthAdjust="spacing" textLength="80" x="38.5" y="112.6709">POST /ai/task</text><polygon fill="#181818" points="367.5,146.186,377.5,150.186,367.5,154.186,371.5,150.186" style="stroke:#181818;stroke-width:1.0;"/><line style="stroke:#181818;stroke-width:1.0;" x1="264.5" x2="373.5" y1="150.186" y2="150.186"/><text fill="#000000" font-family="sans-serif" font-size="13" lengthAdjust="spacing" textLength="78" x="271.5" y="144.377">create ai task</text><line style="stroke:#181818;stroke-width:1.0;" x1="389.5" x2="431.5" y1="181.892" y2="181.892"/><line style="stroke:#181818;stroke-width:1.0;" x1="431.5" x2="431.5" y1="181.892" y2="194.892"/><line style="stroke:#181818;stroke-width:1.0;" x1="390.5" x2="431.5" y1="194.892" y2="194.892"/><polygon fill="#181818" points="400.5,190.892,390.5,194.892,400.5,198.892,396.5,194.892" style="stroke:#181818;stroke-width:1.0;"/><text fill="#000000" font-family="sans-serif" font-size="13" lengthAdjust="spacing" textLength="110" x="396.5" y="176.083">initial task analysis</text><line style="stroke:#181818;stroke-width:1.0;" x1="389.5" x2="431.5" y1="226.598" y2="226.598"/><line style="stroke:#181818;stroke-width:1.0;" x1="431.5" x2="431.5" y1="226.598" y2="239.598"/><line style="stroke:#181818;stroke-width:1.0;" x1="390.5" x2="431.5" y1="239.598" y2="239.598"/><polygon fill="#181818" points="400.5,235.598,390.5,239.598,400.5,243.598,396.5,239.598" style="stroke:#181818;stroke-width:1.0;"/><text fill="#000000" font-family="sans-serif" font-size="13" lengthAdjust="spacing" textLength="65" x="396.5" y="220.789">create task</text><polygon fill="#181818" points="275.5,267.304,265.5,271.304,275.5,275.304,271.5,271.304" style="stroke:#181818;stroke-width:1.0;"/><line style="stroke:#181818;stroke-width:1.0;" x1="269.5" x2="378.5" y1="271.304" y2="271.304"/><text fill="#000000" font-family="sans-serif" font-size="13" lengthAdjust="spacing" textLength="68" x="281.5" y="265.495">task_status</text><polygon fill="#181818" points="42.5,299.01,32.5,303.01,42.5,307.01,38.5,303.01" style="stroke:#181818;stroke-width:1.0;"/><line style="stroke:#181818;stroke-width:1.0;" x1="36.5" x2="258.5" y1="303.01" y2="303.01"/><text fill="#000000" font-family="sans-serif" font-size="13" lengthAdjust="spacing" textLength="199" x="48.5" y="297.201">200 OK + task_status (processing)</text><rect fill="#EEEEEE" height="3" style="stroke:#EEEEEE;stroke-width:1.0;" width="584.5" x="0" y="332.863"/><line style="stroke:#000000;stroke-width:1.0;" x1="0" x2="584.5" y1="332.863" y2="332.863"/><line style="stroke:#000000;stroke-width:1.0;" x1="0" x2="584.5" y1="335.863" y2="335.863"/><rect fill="#EEEEEE" height="25.706" style="stroke:#000000;stroke-width:2.0;" width="101" x="241.75" y="321.01"/><text fill="#000000" font-family="sans-serif" font-size="13" font-weight="bold" lengthAdjust="spacing" textLength="84" x="247.75" y="338.907">Check status</text><polygon fill="#181818" points="242.5,376.4221,252.5,380.4221,242.5,384.4221,246.5,380.4221" style="stroke:#181818;stroke-width:1.0;"/><line style="stroke:#181818;stroke-width:1.0;" x1="31.5" x2="248.5" y1="380.4221" y2="380.4221"/><text fill="#000000" font-family="sans-serif" font-size="13" lengthAdjust="spacing" textLength="71" x="38.5" y="374.6131">GET /ai/task</text><polygon fill="#181818" points="372.5,408.1281,382.5,412.1281,372.5,416.1281,376.5,412.1281" style="stroke:#181818;stroke-width:1.0;"/><line style="stroke:#181818;stroke-width:1.0;" x1="264.5" x2="378.5" y1="412.1281" y2="412.1281"/><text fill="#000000" font-family="sans-serif" font-size="13" lengthAdjust="spacing" textLength="91" x="271.5" y="406.3191">get task_status</text><polygon fill="#181818" points="275.5,439.8341,265.5,443.8341,275.5,447.8341,271.5,443.8341" style="stroke:#181818;stroke-width:1.0;"/><line style="stroke:#181818;stroke-width:1.0;" x1="269.5" x2="378.5" y1="443.8341" y2="443.8341"/><text fill="#000000" font-family="sans-serif" font-size="13" lengthAdjust="spacing" textLength="68" x="281.5" y="438.0251">task_status</text><polygon fill="#181818" points="42.5,471.5401,32.5,475.5401,42.5,479.5401,38.5,475.5401" style="stroke:#181818;stroke-width:1.0;"/><line style="stroke:#181818;stroke-width:1.0;" x1="36.5" x2="258.5" y1="475.5401" y2="475.5401"/><text fill="#000000" font-family="sans-serif" font-size="13" lengthAdjust="spacing" textLength="199" x="48.5" y="469.7311">200 OK + task_status (processing)</text><rect fill="#EEEEEE" height="3" style="stroke:#EEEEEE;stroke-width:1.0;" width="584.5" x="0" y="505.3931"/><line style="stroke:#000000;stroke-width:1.0;" x1="0" x2="584.5" y1="505.3931" y2="505.3931"/><line style="stroke:#000000;stroke-width:1.0;" x1="0" x2="584.5" y1="508.3931" y2="508.3931"/><rect fill="#EEEEEE" height="25.706" style="stroke:#000000;stroke-width:2.0;" width="96" x="244.25" y="493.5401"/><text fill="#000000" font-family="sans-serif" font-size="13" font-weight="bold" lengthAdjust="spacing" textLength="79" x="250.25" y="511.4371">Fetch result</text><line style="stroke:#181818;stroke-width:1.0;" x1="389.5" x2="431.5" y1="552.9521" y2="552.9521"/><line style="stroke:#181818;stroke-width:1.0;" x1="431.5" x2="431.5" y1="552.9521" y2="565.9521"/><line style="stroke:#181818;stroke-width:1.0;" x1="390.5" x2="431.5" y1="565.9521" y2="565.9521"/><polygon fill="#181818" points="400.5,561.9521,390.5,565.9521,400.5,569.9521,396.5,565.9521" style="stroke:#181818;stroke-width:1.0;"/><text fill="#000000" font-family="sans-serif" font-size="13" lengthAdjust="spacing" textLength="84" x="396.5" y="547.1431">complete task</text><line style="stroke:#181818;stroke-width:1.0;" x1="389.5" x2="431.5" y1="597.6582" y2="597.6582"/><line style="stroke:#181818;stroke-width:1.0;" x1="431.5" x2="431.5" y1="597.6582" y2="610.6582"/><line style="stroke:#181818;stroke-width:1.0;" x1="390.5" x2="431.5" y1="610.6582" y2="610.6582"/><polygon fill="#181818" points="400.5,606.6582,390.5,610.6582,400.5,614.6582,396.5,610.6582" style="stroke:#181818;stroke-width:1.0;"/><text fill="#000000" font-family="sans-serif" font-size="13" lengthAdjust="spacing" textLength="159" x="396.5" y="591.8492">store result in tmp storage</text><line style="stroke:#181818;stroke-width:1.0;" x1="389.5" x2="431.5" y1="647.3642" y2="647.3642"/><line style="stroke:#181818;stroke-width:1.0;" x1="431.5" x2="431.5" y1="647.3642" y2="660.3642"/><line style="stroke:#181818;stroke-width:1.0;" x1="384.5" x2="431.5" y1="660.3642" y2="660.3642"/><polygon fill="#181818" points="394.5,656.3642,384.5,660.3642,394.5,664.3642,390.5,660.3642" style="stroke:#181818;stroke-width:1.0;"/><text fill="#000000" font-family="sans-serif" font-size="13" lengthAdjust="spacing" textLength="60" x="396.5" y="641.5552">finish task</text><polygon fill="#181818" points="242.5,683.0702,252.5,687.0702,242.5,691.0702,246.5,687.0702" style="stroke:#181818;stroke-width:1.0;"/><line style="stroke:#181818;stroke-width:1.0;" x1="31.5" x2="248.5" y1="687.0702" y2="687.0702"/><text fill="#000000" font-family="sans-serif" font-size="13" lengthAdjust="spacing" textLength="71" x="38.5" y="681.2612">GET /ai/task</text><polygon fill="#181818" points="367.5,714.7762,377.5,718.7762,367.5,722.7762,371.5,718.7762" style="stroke:#181818;stroke-width:1.0;"/><line style="stroke:#181818;stroke-width:1.0;" x1="264.5" x2="373.5" y1="718.7762" y2="718.7762"/><text fill="#000000" font-family="sans-serif" font-size="13" lengthAdjust="spacing" textLength="91" x="271.5" y="712.9672">get task_status</text><polygon fill="#181818" points="275.5,746.4822,265.5,750.4822,275.5,754.4822,271.5,750.4822" style="stroke:#181818;stroke-width:1.0;"/><line style="stroke:#181818;stroke-width:1.0;" x1="269.5" x2="383.5" y1="750.4822" y2="750.4822"/><text fill="#000000" font-family="sans-serif" font-size="13" lengthAdjust="spacing" textLength="68" x="281.5" y="744.6732">task_status</text><polygon fill="#181818" points="42.5,778.1882,32.5,782.1882,42.5,786.1882,38.5,782.1882" style="stroke:#181818;stroke-width:1.0;"/><line style="stroke:#181818;stroke-width:1.0;" x1="36.5" x2="258.5" y1="782.1882" y2="782.1882"/><text fill="#000000" font-family="sans-serif" font-size="13" lengthAdjust="spacing" textLength="181" x="48.5" y="776.3792">200 OK + task_status (finished)</text><polygon fill="#181818" points="242.5,809.8943,252.5,813.8943,242.5,817.8943,246.5,813.8943" style="stroke:#181818;stroke-width:1.0;"/><line style="stroke:#181818;stroke-width:1.0;" x1="31.5" x2="248.5" y1="813.8943" y2="813.8943"/><text fill="#000000" font-family="sans-serif" font-size="13" lengthAdjust="spacing" textLength="110" x="38.5" y="808.0853">GET /ai/task/result</text><polygon fill="#181818" points="367.5,841.6003,377.5,845.6003,367.5,849.6003,371.5,845.6003" style="stroke:#181818;stroke-width:1.0;"/><line style="stroke:#181818;stroke-width:1.0;" x1="264.5" x2="373.5" y1="845.6003" y2="845.6003"/><text fill="#000000" font-family="sans-serif" font-size="13" lengthAdjust="spacing" textLength="57" x="271.5" y="839.7913">get result</text><line style="stroke:#181818;stroke-width:1.0;" x1="389.5" x2="431.5" y1="877.3063" y2="877.3063"/><line style="stroke:#181818;stroke-width:1.0;" x1="431.5" x2="431.5" y1="877.3063" y2="890.3063"/><line style="stroke:#181818;stroke-width:1.0;" x1="390.5" x2="431.5" y1="890.3063" y2="890.3063"/><polygon fill="#181818" points="400.5,886.3063,390.5,890.3063,400.5,894.3063,396.5,890.3063" style="stroke:#181818;stroke-width:1.0;"/><text fill="#000000" font-family="sans-serif" font-size="13" lengthAdjust="spacing" textLength="176" x="396.5" y="871.4973">fetch result from tmp storage</text><polygon fill="#181818" points="275.5,918.0123,265.5,922.0123,275.5,926.0123,271.5,922.0123" style="stroke:#181818;stroke-width:1.0;"/><line style="stroke:#181818;stroke-width:1.0;" x1="269.5" x2="383.5" y1="922.0123" y2="922.0123"/><text fill="#000000" font-family="sans-serif" font-size="13" lengthAdjust="spacing" textLength="34" x="281.5" y="916.2033">result</text><polygon fill="#181818" points="42.5,949.7183,32.5,953.7183,42.5,957.7183,38.5,953.7183" style="stroke:#181818;stroke-width:1.0;"/><line style="stroke:#181818;stroke-width:1.0;" x1="36.5" x2="258.5" y1="953.7183" y2="953.7183"/><text fill="#000000" font-family="sans-serif" font-size="13" lengthAdjust="spacing" textLength="89" x="48.5" y="947.9093">200 OK + result</text><!--SRC=[nP11QuGm48Nl_eg1Nhg8kFGeM5XaTv4UTg6zbsaswc1CGX8F_VSrKHVTRdlfeNYGl2ylyzxObgH6Wnry86jhetfvAPHG1XuEU_z5qO0TCT8e7HI2-F132qoimEvSUXKrhMMIAkWKHNaEfIH7w3ZioiIXRI7F8oOWUVP6YECCpgVNDqYHKeyZhteuCcQuzmwd4Kui0mhFYY03IXIVbko2JyQbIm-oFxzRXwwtyoGV9idWQRk5qml4oolmg8rYt5gIzIQqAHhEMfZejoR7_Oz5QkxMm-TCOVXVOnsuOmqORdlXVAp57bId1R_PnA1RfmoV7IJ1TJfeMFFhhH2W6ZPjcz7-NtN73Foo-Ir1EfQv4sG6r_BLSbsLKTsz-bFMzQktCIVw1G00]--></g></svg>